<svg width="108" height="25" viewBox="0 0 108 25" fill="none" xmlns="http://www.w3.org/2000/svg">
<path d="M1.3248 16.2304C0.9024 15.4368 0.6912 14.5024 0.6912 13.4272C0.6912 12.4288 0.8576 11.5392 1.1904 10.7584C1.536 9.9648 1.9072 9.3312 2.304 8.8576C2.7136 8.3712 3.2064 7.9872 3.7824 7.7056C4.3712 7.4112 4.992 7.264 5.6448 7.264C6.5664 7.264 7.3024 7.5264 7.8528 8.0512L10.368 5.9392C10.3168 5.4912 10.2912 5.0496 10.2912 4.6144C10.2912 1.7728 11.04 0.352 12.5376 0.352C12.9216 0.352 13.2224 0.4864 13.44 0.755201C13.6576 1.024 13.7792 1.3696 13.8048 1.792C13.8176 2.4064 13.6192 3.0208 13.2096 3.6352C12.8128 4.2496 12.224 4.9216 11.4432 5.6512C11.84 8.3008 12.0384 10.1056 12.0384 11.0656C12.0384 12.0128 11.9168 12.9344 11.6736 13.8304C11.4304 14.7136 11.0592 15.52 10.56 16.2496C10.0608 16.9792 9.376 17.5488 8.5056 17.9584C7.6352 18.368 6.624 18.5728 5.472 18.5728C3.8208 18.5728 2.5728 18.0096 1.728 16.8832C1.4976 17.6896 1.3824 18.6048 1.3824 19.6288C1.3824 20.6656 1.6512 21.5936 2.1888 22.4128C2.7392 23.2448 3.4432 23.6608 4.3008 23.6608C4.3648 23.6608 4.3968 23.7248 4.3968 23.8528C4.4096 23.9808 4.3776 24.0448 4.3008 24.0448C3.2896 24.0448 2.4576 23.5648 1.8048 22.6048C1.152 21.6576 0.8256 20.6016 0.8256 19.4368C0.8256 18.272 0.992 17.2032 1.3248 16.2304ZM8.1792 8.416C8.5376 8.9024 8.7168 9.4528 8.7168 10.0672C8.7168 10.6688 8.6208 11.2128 8.4288 11.6992C8.2496 12.1728 7.9232 12.5952 7.4496 12.9664C6.9888 13.3248 6.4512 13.504 5.8368 13.504C5.7088 13.504 5.6064 13.472 5.5296 13.408C5.4656 13.344 5.4208 13.2416 5.3952 13.1008C5.9456 13.1008 6.4512 12.8448 6.912 12.3328C7.5776 11.616 7.9104 10.8096 7.9104 9.9136C7.9104 9.5424 7.84 9.184 7.6992 8.8384C6.2656 10.0672 5.056 11.2704 4.0704 12.448C3.0848 13.6256 2.3616 14.9056 1.9008 16.288C2.6304 17.4656 3.776 18.0544 5.3376 18.0544C6.2976 18.0544 7.136 17.8496 7.8528 17.44C8.5824 17.0432 9.152 16.4992 9.5616 15.808C10.368 14.4512 10.7712 12.8064 10.7712 10.8736C10.7712 10.4 10.656 8.96 10.4256 6.5536L8.1792 8.416ZM7.4112 8.4352C7.0016 8 6.4384 7.7824 5.7216 7.7824C5.0048 7.7824 4.3584 7.9552 3.7824 8.3008C2.72 8.9408 1.9584 10.016 1.4976 11.5264C1.2928 12.1664 1.1904 12.8256 1.1904 13.504C1.1904 14.2592 1.312 14.9568 1.5552 15.5968C2.4384 13.3824 4.3904 10.9952 7.4112 8.4352ZM11.2704 3.6352C11.2704 3.9808 11.3024 4.4416 11.3664 5.0176C12.6336 3.776 13.2672 2.7264 13.2672 1.8688C13.2672 1.2032 13.024 0.8704 12.5376 0.8704C11.6928 0.8704 11.2704 1.792 11.2704 3.6352ZM15.3032 16.0192C14.292 16.0192 13.7864 15.2576 13.7864 13.7344C13.7864 12.8512 14.0168 11.8848 14.4776 10.8352C15.1176 9.4144 15.9304 8.4864 16.916 8.0512C17.2616 7.9104 17.6072 7.84 17.9528 7.84C18.3112 7.84 18.5928 7.9424 18.7976 8.1472C19.0024 8.352 19.1048 8.5824 19.1048 8.8384C19.1048 8.9536 19.0408 9.0112 18.9128 9.0112C18.7976 8.9984 18.74 8.9344 18.74 8.8192C18.74 8.704 18.676 8.6016 18.548 8.512C18.4328 8.4096 18.26 8.3584 18.0296 8.3584C17.2232 8.3584 16.4936 9.0816 15.8408 10.528C15.2264 11.872 14.9192 13.1456 14.9192 14.3488C14.9192 15.0912 15.0792 15.4624 15.3992 15.4624C15.732 15.4624 16.1288 15.1872 16.5896 14.6368C17.0632 14.0736 17.4984 13.4208 17.8952 12.6784C18.7528 11.1168 19.2584 10.112 19.412 9.664C19.5656 9.216 19.732 8.992 19.9112 8.992C20.2312 8.992 20.3912 9.2608 20.3912 9.7984C20.3912 9.9648 20.372 10.1568 20.3336 10.3744C19.9112 12.4224 19.6808 13.6064 19.6424 13.9264C19.6168 14.2464 19.604 14.4768 19.604 14.6176C19.604 15.232 19.7512 15.5392 20.0456 15.5392C20.3784 15.5392 20.8456 15.0976 21.4472 14.2144C22.0488 13.3312 22.5672 12.448 23.0024 11.5648L23.6552 10.24H24.1736C24.0968 10.3936 23.9944 10.6048 23.8664 10.8736C23.7512 11.1296 23.5144 11.5968 23.156 12.2752C22.7976 12.9408 22.452 13.5296 22.1192 14.0416C21.7992 14.5536 21.4344 15.0208 21.0248 15.4432C20.628 15.8528 20.2824 16.0576 19.988 16.0576C19.0408 16.0576 18.5672 15.3664 18.5672 13.984C18.5672 13.5232 18.6184 12.9856 18.7208 12.3712H18.5864C17.2808 14.8032 16.1864 16.0192 15.3032 16.0192ZM27.561 7.4944C28.1114 7.4944 28.3866 8.0256 28.3866 9.088C28.3866 9.28 28.3738 9.4784 28.3482 9.6832C28.5658 9.7472 28.8154 9.7792 29.097 9.7792C29.3786 9.7792 29.6346 9.6576 29.865 9.4144C30.0954 9.1712 30.2106 8.9472 30.2106 8.7424C30.2106 8.6912 30.2426 8.6592 30.3066 8.6464C30.3706 8.6208 30.4282 8.6208 30.4794 8.6464C30.5434 8.672 30.5754 8.7104 30.5754 8.7616C30.5754 9.1328 30.4154 9.4848 30.0954 9.8176C29.7882 10.1504 29.3722 10.3168 28.8474 10.3168C28.6426 10.3168 28.457 10.2976 28.2906 10.2592C27.9578 12.3072 27.2922 13.9136 26.2938 15.0784C25.769 15.6928 25.257 16 24.7578 16C23.8362 16 23.273 15.6928 23.0682 15.0784C22.953 14.7456 22.8954 14.3936 22.8954 14.0224C22.8954 13.6512 22.9466 13.2096 23.049 12.6976C23.2154 11.8656 23.561 10.528 24.0858 8.6848C24.1626 8.416 24.2842 8.2816 24.4506 8.2816C24.681 8.2816 24.8474 8.448 24.9498 8.7808C25.001 8.9216 25.0266 9.1008 25.0266 9.3184C25.0266 9.5232 24.9882 9.7728 24.9114 10.0672C24.425 11.8976 24.1498 13.0048 24.0858 13.3888C24.0218 13.76 23.9898 14.08 23.9898 14.3488C23.9898 15.104 24.2266 15.4816 24.7002 15.4816C25.3914 15.4816 26.0314 14.9056 26.6202 13.7536C27.2218 12.6016 27.6314 11.3792 27.849 10.0864C27.465 9.8816 27.209 9.6128 27.081 9.28C26.9658 8.9344 26.9082 8.672 26.9082 8.4928C26.9082 8.3008 26.9338 8.1344 26.985 7.9936C27.0874 7.6608 27.2794 7.4944 27.561 7.4944ZM31.1235 16.0192C30.1123 16.0192 29.6067 15.2576 29.6067 13.7344C29.6067 12.8512 29.8371 11.8848 30.2979 10.8352C30.9379 9.4144 31.7507 8.4864 32.7363 8.0512C33.0819 7.9104 33.4275 7.84 33.7731 7.84C34.1315 7.84 34.4131 7.9424 34.6179 8.1472C34.8227 8.352 34.9251 8.5824 34.9251 8.8384C34.9251 8.9536 34.8611 9.0112 34.7331 9.0112C34.6179 8.9984 34.5603 8.9344 34.5603 8.8192C34.5603 8.704 34.4963 8.6016 34.3683 8.512C34.2531 8.4096 34.0803 8.3584 33.8499 8.3584C33.0435 8.3584 32.3139 9.0816 31.6611 10.528C31.0467 11.872 30.7395 13.1456 30.7395 14.3488C30.7395 15.0912 30.8995 15.4624 31.2195 15.4624C31.5523 15.4624 31.9491 15.1872 32.4099 14.6368C32.8835 14.0736 33.3187 13.4208 33.7155 12.6784C34.5731 11.1168 35.0787 10.112 35.2323 9.664C35.3859 9.216 35.5523 8.992 35.7315 8.992C36.0515 8.992 36.2115 9.2608 36.2115 9.7984C36.2115 9.9648 36.1923 10.1568 36.1539 10.3744C35.7315 12.4224 35.5011 13.6064 35.4627 13.9264C35.4371 14.2464 35.4243 14.4768 35.4243 14.6176C35.4243 15.232 35.5715 15.5392 35.8659 15.5392C36.1987 15.5392 36.6659 15.0976 37.2675 14.2144C37.8691 13.3312 38.3875 12.448 38.8227 11.5648L39.4755 10.24H39.9939C39.9171 10.3936 39.8147 10.6048 39.6867 10.8736C39.5715 11.1296 39.3347 11.5968 38.9763 12.2752C38.6179 12.9408 38.2723 13.5296 37.9395 14.0416C37.6195 14.5536 37.2547 15.0208 36.8451 15.4432C36.4483 15.8528 36.1027 16.0576 35.8083 16.0576C34.8611 16.0576 34.3875 15.3664 34.3875 13.984C34.3875 13.5232 34.4387 12.9856 34.5411 12.3712H34.4067C33.1011 14.8032 32.0067 16.0192 31.1235 16.0192ZM39.1573 16C38.7989 16 38.6197 15.7248 38.6197 15.1744C38.6197 14.88 38.9781 12.736 39.6949 8.7424C39.7333 8.4736 39.8485 8.3392 40.0405 8.3392C40.2709 8.3392 40.4437 8.5056 40.5589 8.8384C40.6229 9.0176 40.6549 9.216 40.6549 9.4336C40.6549 9.6384 40.6293 9.8624 40.5781 10.1056L40.2709 11.6416H40.3861C41.5381 9.056 42.6389 7.7632 43.6885 7.7632C44.0981 7.7632 44.4117 7.8912 44.6293 8.1472C44.8469 8.3904 44.9557 8.7296 44.9557 9.1648C44.9557 9.6 44.7829 10.5408 44.4373 11.9872C44.0917 13.4336 43.9189 14.4384 43.9189 15.0016C43.9189 15.8336 44.0725 16.2496 44.3797 16.2496C44.3797 16.3392 44.3221 16.4288 44.2069 16.5184C44.0917 16.608 43.9573 16.6528 43.8037 16.6528C43.0613 16.6528 42.6901 16.0704 42.6901 14.9056C42.6901 14.1888 42.8821 13.1072 43.2661 11.6608C43.6629 10.2016 43.8613 9.2736 43.8613 8.8768C43.8613 8.4672 43.7013 8.2624 43.3813 8.2624C42.9205 8.2624 42.3637 8.864 41.7109 10.0672C41.0709 11.2704 40.5525 12.4224 40.1557 13.5232C39.7717 14.6112 39.5477 15.296 39.4837 15.5776C39.4325 15.8592 39.3237 16 39.1573 16ZM49.3044 4.4992C49.5988 4.4992 49.746 4.6976 49.746 5.0944C49.746 5.4912 49.554 5.8112 49.17 6.0544C48.978 6.1824 48.8116 6.2464 48.6708 6.2464C48.466 6.2464 48.3444 6.1824 48.306 6.0544L48.2868 5.9968C48.402 5.9968 48.4852 5.8752 48.5364 5.632C48.5876 5.376 48.6644 5.1264 48.7668 4.8832C48.882 4.6272 49.0612 4.4992 49.3044 4.4992ZM48.0756 15.5392C48.4084 15.5392 48.8756 15.0976 49.4772 14.2144C50.0788 13.3312 50.5972 12.448 51.0324 11.5648L51.6852 10.24H52.2036C52.1268 10.3936 52.0244 10.6048 51.8964 10.8736C51.7812 11.1296 51.5444 11.5968 51.186 12.2752C50.8276 12.9408 50.482 13.5296 50.1492 14.0416C49.8292 14.5536 49.4644 15.0208 49.0548 15.4432C48.658 15.8528 48.3124 16.0576 48.018 16.0576C47.0708 16.0576 46.5972 15.4432 46.5972 14.2144C46.5972 13.2928 46.8596 11.7952 47.3844 9.7216C47.4356 9.504 47.474 9.3376 47.4996 9.2224C47.538 9.1072 47.5764 8.96 47.6148 8.7808C47.6532 8.5888 47.6916 8.416 47.73 8.2624C47.794 7.9936 47.9092 7.8592 48.0756 7.8592C48.306 7.8592 48.4724 8.0256 48.5748 8.3584C48.626 8.512 48.6516 8.6976 48.6516 8.9152C48.6516 9.1328 48.626 9.3632 48.5748 9.6064C48.5236 9.8368 48.4404 10.1824 48.3252 10.6432C48.21 11.104 48.1204 11.4816 48.0564 11.776C47.9924 12.0704 47.922 12.4288 47.8452 12.8512C47.7044 13.5552 47.634 14.1824 47.634 14.7328C47.634 15.2704 47.7812 15.5392 48.0756 15.5392ZM51.3682 16C51.0099 16 50.8307 15.7248 50.8307 15.1744C50.8307 14.88 51.1891 12.736 51.9059 8.7424C51.9442 8.4736 52.0594 8.3392 52.2514 8.3392C52.4818 8.3392 52.6547 8.5056 52.7698 8.8384C52.8338 9.0176 52.8659 9.216 52.8659 9.4336C52.8659 9.6384 52.8402 9.8624 52.789 10.1056L52.4818 11.6416H52.5971C53.749 9.056 54.8498 7.7632 55.8994 7.7632C56.309 7.7632 56.6226 7.8912 56.8402 8.1472C57.0578 8.3904 57.1666 8.7296 57.1666 9.1648C57.1666 9.6 56.9938 10.5408 56.6482 11.9872C56.3026 13.4336 56.1298 14.4384 56.1298 15.0016C56.1298 15.8336 56.2834 16.2496 56.5906 16.2496C56.5906 16.3392 56.533 16.4288 56.4178 16.5184C56.3026 16.608 56.1682 16.6528 56.0146 16.6528C55.2722 16.6528 54.901 16.0704 54.901 14.9056C54.901 14.1888 55.093 13.1072 55.477 11.6608C55.8738 10.2016 56.0723 9.2736 56.0723 8.8768C56.0723 8.4672 55.9122 8.2624 55.5922 8.2624C55.1314 8.2624 54.5746 8.864 53.9218 10.0672C53.2818 11.2704 52.7634 12.4224 52.3667 13.5232C51.9826 14.6112 51.7586 15.296 51.6946 15.5776C51.6435 15.8592 51.5346 16 51.3682 16ZM59.9985 16.0192C58.9873 16.0192 58.4817 15.2576 58.4817 13.7344C58.4817 12.8512 58.7121 11.8848 59.1729 10.8352C59.8129 9.4144 60.6257 8.4864 61.6113 8.0512C61.9569 7.9104 62.3025 7.84 62.6481 7.84C63.0065 7.84 63.2881 7.9424 63.4929 8.1472C63.6977 8.352 63.8001 8.5824 63.8001 8.8384C63.8001 8.9536 63.7361 9.0112 63.6081 9.0112C63.4929 8.9984 63.4353 8.9344 63.4353 8.8192C63.4353 8.704 63.3713 8.6016 63.2433 8.512C63.1281 8.4096 62.9553 8.3584 62.7249 8.3584C61.9185 8.3584 61.1889 9.0816 60.5361 10.528C59.9217 11.872 59.6145 13.1456 59.6145 14.3488C59.6145 15.0912 59.7745 15.4624 60.0945 15.4624C60.4273 15.4624 60.8241 15.1872 61.2849 14.6368C61.7585 14.0736 62.1937 13.4208 62.5905 12.6784C63.4481 11.1168 63.9537 10.112 64.1073 9.664C64.2609 9.216 64.4273 8.992 64.6065 8.992C64.9265 8.992 65.0865 9.2608 65.0865 9.7984C65.0865 9.9648 65.0673 10.1568 65.0289 10.3744C64.6065 12.4224 64.3761 13.6064 64.3377 13.9264C64.3121 14.2464 64.2993 14.4768 64.2993 14.6176C64.2993 15.232 64.4465 15.5392 64.7409 15.5392C65.0737 15.5392 65.5409 15.0976 66.1425 14.2144C66.7441 13.3312 67.2625 12.448 67.6977 11.5648L68.3505 10.24H68.8689C68.7921 10.3936 68.6897 10.6048 68.5617 10.8736C68.4465 11.1296 68.2097 11.5968 67.8513 12.2752C67.4929 12.9408 67.1473 13.5296 66.8145 14.0416C66.4945 14.5536 66.1297 15.0208 65.7201 15.4432C65.3233 15.8528 64.9777 16.0576 64.6833 16.0576C63.7361 16.0576 63.2625 15.3664 63.2625 13.984C63.2625 13.5232 63.3137 12.9856 63.4161 12.3712H63.2817C61.9761 14.8032 60.8817 16.0192 59.9985 16.0192ZM70.2403 14.6176C70.5347 14.6176 70.6819 14.816 70.6819 15.2128C70.6819 15.6096 70.4899 15.9296 70.1059 16.1728C69.9139 16.3008 69.7475 16.3648 69.6067 16.3648C69.4019 16.3648 69.2739 16.2816 69.2227 16.1152C69.3379 16.1152 69.4211 15.9936 69.4723 15.7504C69.5235 15.4944 69.6003 15.2448 69.7027 15.0016C69.8179 14.7456 69.9971 14.6176 70.2403 14.6176ZM74.6705 15.4816C75.1569 15.4816 75.6881 14.8224 76.2641 13.504C76.8529 12.1088 77.1473 10.8352 77.1473 9.6832C77.1473 8.8896 76.9425 8.4864 76.5329 8.4736C76.1361 8.4736 75.6817 8.7936 75.1697 9.4336C74.6705 10.0736 74.2161 10.8288 73.8065 11.6992C72.9233 13.6064 72.3729 15.0336 72.1553 15.9808C71.4769 19.0528 71.0097 20.96 70.7537 21.7024C70.3057 23.008 69.7937 23.6608 69.2177 23.6608C68.7697 23.6608 68.5457 23.3536 68.5457 22.7392C68.5457 22.3808 68.6225 21.9072 68.7761 21.3184C69.1729 19.8976 69.7937 18.5344 70.6385 17.2288L71.1569 16.5184C71.2721 15.9424 71.4257 15.1104 71.6177 14.0224C72.0017 11.8336 72.2769 10.3872 72.4433 9.6832C72.6225 8.9664 72.8273 8.48 73.0577 8.224C73.3009 7.9552 73.5057 7.8208 73.6721 7.8208C73.9921 7.8208 74.1073 7.9488 74.0177 8.2048C73.6977 9.2544 73.3649 10.496 73.0193 11.9296H73.1537C74.4081 9.2032 75.5409 7.84 76.5521 7.84C77.3713 7.84 77.8833 8.3648 78.0881 9.4144C78.1521 9.7472 78.1841 10.0864 78.1841 10.432C78.1841 11.2768 77.9921 12.192 77.6081 13.1776C77.0705 14.5856 76.3537 15.4752 75.4577 15.8464C75.1889 15.9616 74.9201 16.0192 74.6513 16.0192C74.0241 16.0192 73.6593 15.6736 73.5569 14.9824C73.5441 14.8672 73.5697 14.7776 73.6337 14.7136C73.6977 14.6496 73.7745 14.6304 73.8641 14.656C73.9537 14.6816 74.0049 14.7456 74.0177 14.848C74.0817 15.2704 74.2993 15.4816 74.6705 15.4816ZM69.1601 23.1424C69.6593 23.1424 70.2737 21.2096 71.0033 17.344C70.2481 18.5216 69.6401 19.8272 69.1793 21.2608C68.9745 21.9008 68.8721 22.3744 68.8721 22.6816C68.8721 22.9888 68.9681 23.1424 69.1601 23.1424ZM83.9686 0.352C84.5446 0.352 84.8326 0.736 84.8326 1.504C84.8326 1.696 84.8134 1.92 84.775 2.176C84.583 3.392 84.0774 4.6464 83.2582 5.9392C82.6694 6.8736 82.1126 7.4624 81.5878 7.7056C81.3318 9.088 81.1078 10.3424 80.9158 11.4688H81.0502C82.1254 9.0752 83.2134 7.8784 84.3142 7.8784C84.711 7.8784 85.0182 8 85.2358 8.2432C85.4662 8.4864 85.5814 8.8192 85.5814 9.2416C85.5814 9.664 85.415 10.592 85.0822 12.0256C84.7494 13.4464 84.583 14.4384 84.583 15.0016C84.583 15.8336 84.7366 16.2496 85.0438 16.2496C85.0438 16.3392 84.9862 16.4288 84.871 16.5184C84.7558 16.608 84.6214 16.6528 84.4678 16.6528C83.7254 16.6528 83.3542 16.0704 83.3542 14.9056C83.3542 14.1888 83.5398 13.1264 83.911 11.7184C84.295 10.2976 84.487 9.3824 84.487 8.9728C84.487 8.5632 84.327 8.3584 84.007 8.3584C83.6358 8.3584 83.2262 8.672 82.7782 9.2992C82.3302 9.9264 81.9142 10.7264 81.5302 11.6992C80.8902 13.2608 80.4102 14.5664 80.0902 15.616C80.0134 15.872 79.9046 16 79.7638 16C79.5334 16 79.3606 15.8592 79.2454 15.5776C79.1814 15.424 79.1494 15.264 79.1494 15.0976C79.1494 14.9184 79.2006 14.5984 79.303 14.1376C79.4054 13.664 79.5782 12.8384 79.8214 11.6608C80.0518 10.4832 80.2502 9.5104 80.4166 8.7424C80.583 7.9616 80.775 7.0912 80.9926 6.1312C81.2102 5.1584 81.415 4.3712 81.607 3.7696C81.8118 3.1552 82.0422 2.5664 82.2982 2.0032C82.7846 0.9024 83.3414 0.352 83.9686 0.352ZM84.391 1.5424C84.391 1.1328 84.2758 0.883201 84.0454 0.7936C83.2902 0.7936 82.5094 2.9056 81.703 7.1296C82.215 6.7712 82.7462 6.0544 83.2966 4.9792C84.0262 3.5328 84.391 2.3872 84.391 1.5424ZM88.426 13.4656C88.426 14.8096 88.7844 15.4816 89.5012 15.4816C89.9876 15.4816 90.442 15.1808 90.8644 14.5792C91.6708 13.4528 92.1636 11.968 92.3428 10.1248C91.8948 9.9328 91.5812 9.6192 91.402 9.184C91.2868 8.9152 91.2292 8.6912 91.2292 8.512C91.2292 8.32 91.2548 8.1536 91.306 8.0128C91.4212 7.6672 91.6324 7.4944 91.9396 7.4944C92.2468 7.4944 92.4772 7.6928 92.6308 8.0896C92.7972 8.4736 92.8804 8.9664 92.8804 9.568C92.8804 9.6064 92.8804 9.6512 92.8804 9.7024C93.034 9.7536 93.258 9.7792 93.5524 9.7792C93.8596 9.7792 94.1284 9.6576 94.3588 9.4144C94.5892 9.1712 94.7044 8.9472 94.7044 8.7424C94.7044 8.6912 94.7364 8.6592 94.8004 8.6464C94.8644 8.6208 94.922 8.6208 94.9732 8.6464C95.0372 8.672 95.0692 8.7104 95.0692 8.7616C95.0692 9.1328 94.9092 9.4848 94.5892 9.8176C94.282 10.1504 93.866 10.3168 93.3412 10.3168C93.2132 10.3168 93.0468 10.304 92.842 10.2784C92.7652 11.1488 92.5796 12.0128 92.2852 12.8704C92.0036 13.7152 91.6068 14.4512 91.0948 15.0784C90.5828 15.6928 90.0324 16 89.4436 16C88.33 16 87.6452 15.4048 87.3892 14.2144C87.3252 13.8688 87.2932 13.5168 87.2932 13.1584C87.2932 12.352 87.4788 11.488 87.85 10.5664C88.3364 9.3632 88.938 8.6144 89.6548 8.32C90.026 8.192 90.282 8.1728 90.4228 8.2624C90.5636 8.352 90.6532 8.4544 90.6916 8.5696C90.1028 8.5696 89.578 9.12 89.1172 10.2208C88.6564 11.3216 88.426 12.4032 88.426 13.4656ZM94.9937 7.6096C94.9937 7.4688 95.0833 7.3984 95.2625 7.3984H96.2608C96.3248 7.1424 96.408 6.8224 96.5104 6.4384L96.7792 5.44C96.856 5.1456 96.92 4.8768 96.9712 4.6336C97.0352 4.3904 97.1504 4.2688 97.3169 4.2688C97.5344 4.2688 97.688 4.4352 97.7776 4.768C97.816 4.9088 97.8353 5.0816 97.8353 5.2864C97.8353 5.4912 97.7968 5.7536 97.72 6.0736L97.3552 7.3984H98.5456C98.6608 7.3984 98.7376 7.4368 98.776 7.5136C98.8273 7.5904 98.8273 7.6672 98.776 7.744C98.7376 7.808 98.6608 7.84 98.5456 7.84H97.24C96.4464 10.8224 96.0496 12.9344 96.0496 14.176C96.0496 15.0848 96.2544 15.5392 96.664 15.5392C96.9968 15.5392 97.464 15.0976 98.0656 14.2144C98.6672 13.3312 99.1856 12.448 99.6208 11.5648L100.274 10.24H100.792C100.715 10.3936 100.613 10.6048 100.485 10.8736C100.37 11.1296 100.133 11.5968 99.7744 12.2752C99.416 12.9408 99.0704 13.5296 98.7376 14.0416C98.4176 14.5536 98.0529 15.0208 97.6432 15.4432C97.2464 15.8528 96.8752 16.0576 96.5297 16.0576C96.184 16.0576 95.8832 15.9488 95.6272 15.7312C95.3841 15.5008 95.2305 15.1808 95.1665 14.7712C95.0897 14.3488 95.0513 13.92 95.0513 13.4848C95.0513 12.4736 95.4096 10.592 96.1264 7.84H95.2625C95.1601 7.84 95.0897 7.8144 95.0513 7.7632C95.0129 7.6992 94.9937 7.648 94.9937 7.6096ZM100.707 13.4656C100.707 14.8096 101.066 15.4816 101.782 15.4816C102.269 15.4816 102.723 15.1808 103.146 14.5792C103.952 13.4528 104.445 11.968 104.624 10.1248C104.176 9.9328 103.862 9.6192 103.683 9.184C103.568 8.9152 103.51 8.6912 103.51 8.512C103.51 8.32 103.536 8.1536 103.587 8.0128C103.702 7.6672 103.914 7.4944 104.221 7.4944C104.528 7.4944 104.758 7.6928 104.912 8.0896C105.078 8.4736 105.162 8.9664 105.162 9.568C105.162 9.6064 105.162 9.6512 105.162 9.7024C105.315 9.7536 105.539 9.7792 105.834 9.7792C106.141 9.7792 106.41 9.6576 106.64 9.4144C106.87 9.1712 106.986 8.9472 106.986 8.7424C106.986 8.6912 107.018 8.6592 107.082 8.6464C107.146 8.6208 107.203 8.6208 107.254 8.6464C107.318 8.672 107.35 8.7104 107.35 8.7616C107.35 9.1328 107.19 9.4848 106.87 9.8176C106.563 10.1504 106.147 10.3168 105.622 10.3168C105.494 10.3168 105.328 10.304 105.123 10.2784C105.046 11.1488 104.861 12.0128 104.566 12.8704C104.285 13.7152 103.888 14.4512 103.376 15.0784C102.864 15.6928 102.314 16 101.725 16C100.611 16 99.9264 15.4048 99.6704 14.2144C99.6064 13.8688 99.5744 13.5168 99.5744 13.1584C99.5744 12.352 99.76 11.488 100.131 10.5664C100.618 9.3632 101.219 8.6144 101.936 8.32C102.307 8.192 102.563 8.1728 102.704 8.2624C102.845 8.352 102.934 8.4544 102.973 8.5696C102.384 8.5696 101.859 9.12 101.398 10.2208C100.938 11.3216 100.707 12.4032 100.707 13.4656Z" fill="white"/>
</svg>
